<svg id="Layer_1" data-name="Layer 1" xmlns="http://www.w3.org/2000/svg" width="203.73" height="180.73" viewBox="0 0 203.73 180.73"><defs><style>.cls-1{fill:#171717;}</style></defs><path class="cls-1" d="M198.66,0H5.35A5.08,5.08,0,0,0,.28,5.08V49.92A5.08,5.08,0,0,0,5.35,55H198.66a5.09,5.09,0,0,0,5.07-5.08V5.08A5.09,5.09,0,0,0,198.66,0ZM129.17,63.71H5.35A5.08,5.08,0,0,0,.28,68.79v44a5.08,5.08,0,0,0,5.07,5.08H129.17a5.09,5.09,0,0,0,5.08-5.08v-44A5.09,5.09,0,0,0,129.17,63.71ZM59.41,126.57H5.08A5.09,5.09,0,0,0,0,131.65v44a5.08,5.08,0,0,0,5.08,5.08H59.41a5.08,5.08,0,0,0,5.08-5.08v-44A5.09,5.09,0,0,0,59.41,126.57Z"/></svg>